<svg width="1170" height="411" viewBox="0 0 1170 411" fill="none" xmlns="http://www.w3.org/2000/svg">
<g filter="url(#filter0_f_20_12543)">
<rect width="600" height="2" transform="matrix(-1 0 0 1 885 399)" fill="url(#paint0_linear_20_12543)"/>
</g>
<g filter="url(#filter1_f_20_12543)">
<rect width="600" height="2" transform="matrix(-1 0 0 1 885 399)" fill="url(#paint1_linear_20_12543)"/>
</g>

<rect x="100" width="970" height="393" rx="20" fill="url(#paint2_linear_20_12543)" fill-opacity="0.03"/>
<rect x="100.5" y="0.5" width="969" height="392" rx="19.5" stroke="url(#paint3_linear_20_12543)" stroke-opacity="0.08"/>
<rect x="110" y="10" width="950" height="391" rx="12" fill="url(#paint4_linear_20_12543)" fill-opacity="0.04"/>
<rect x="110.5" y="10.5" width="949" height="390" rx="11.5" stroke="url(#paint5_linear_20_12543)" stroke-opacity="0.12"/>
<circle cx="134" cy="36" r="4" fill="white" fill-opacity="0.2"/>
<circle cx="148" cy="36" r="4" fill="white" fill-opacity="0.2"/>
<circle cx="162" cy="36" r="4" fill="white" fill-opacity="0.2"/>

<defs>
<linearGradient id="paint2_linear_20_12543" x1="585" y1="0" x2="585" y2="393" gradientUnits="userSpaceOnUse">
<stop stop-color="white"/>
<stop offset="1" stop-color="white" stop-opacity="0"/>
</linearGradient>
<linearGradient id="paint3_linear_20_12543" x1="585" y1="0" x2="585" y2="411.5" gradientUnits="userSpaceOnUse">
<stop stop-color="white"/>
<stop offset="1" stop-color="white" stop-opacity="0"/>
</linearGradient>
<linearGradient id="paint4_linear_20_12543" x1="585" y1="10" x2="585" y2="401" gradientUnits="userSpaceOnUse">
<stop stop-color="white"/>
<stop offset="1" stop-color="white" stop-opacity="0"/>
</linearGradient>
<linearGradient id="paint5_linear_20_12543" x1="585" y1="10" x2="585" y2="401" gradientUnits="userSpaceOnUse">
<stop stop-color="white"/>
<stop offset="1" stop-color="white" stop-opacity="0"/>
</linearGradient>
<linearGradient id="paint6_linear_20_12543" x1="310" y1="401" x2="310" y2="10" gradientUnits="userSpaceOnUse">
<stop stop-color="white" stop-opacity="0"/>
<stop offset="0.703125" stop-color="white"/>
</linearGradient>
<linearGradient id="paint7_linear_20_12543" x1="210" y1="336" x2="210" y2="366" gradientUnits="userSpaceOnUse">
<stop stop-color="white"/>
<stop offset="1" stop-color="white" stop-opacity="0"/>
</linearGradient>
<linearGradient id="paint8_linear_20_12543" x1="1170" y1="400" x2="0" y2="400" gradientUnits="userSpaceOnUse">
<stop stop-color="white" stop-opacity="0"/>
<stop offset="0.536458" stop-color="white" stop-opacity="0.2"/>
<stop offset="1" stop-color="white" stop-opacity="0"/>
</linearGradient>
</defs>
</svg>
