<svg width="352.3260000000001" height="352.327" xmlns="http://www.w3.org/2000/svg">

 <g>
  <title>background</title>
  <rect fill="none" id="canvas_background" height="402" width="582" y="-1" x="-1"/>
 </g>
 <g>
  <title>Layer 1</title>
  <g id="svg_1">
   <g id="svg_2">
    <path id="svg_3" d="m204.994,193.713c-4.475,0 -8.194,1.516 -10.757,4.385c-2.3,2.571 -3.564,6.068 -3.564,9.847c0,6.939 4.532,14.41 14.482,14.41c4.474,0 8.194,-1.516 10.757,-4.386c2.298,-2.571 3.562,-6.067 3.562,-9.846c0.001,-6.94 -4.531,-14.41 -14.48,-14.41z" fill="currentColor"/>
    <path id="svg_4" d="m147.903,158.913c4.487,0 8.217,-1.513 10.787,-4.373c2.3,-2.562 3.567,-6.045 3.567,-9.808c0,-6.918 -4.542,-14.363 -14.517,-14.363c-10.17,0 -14.722,7.124 -14.722,14.183c0,6.917 4.658,14.361 14.885,14.361z" fill="currentColor"/>
    <path id="svg_5" d="m176.164,62.745c-62.539,0 -113.418,50.879 -113.418,113.418c0,62.539 50.879,113.418 113.418,113.418s113.418,-50.879 113.418,-113.418c0,-62.539 -50.879,-113.418 -113.418,-113.418z" fill="currentColor"/>
    <path id="svg_6" d="m322.759,223.797c5.22,-16.073 29.567,-29.82 29.567,-47.634c0,-17.814 -24.348,-31.562 -29.567,-47.635c-5.409,-16.659 6.021,-42.056 -4.07,-55.922c-10.192,-14.005 -37.947,-10.933 -51.952,-21.125c-13.867,-10.092 -19.465,-37.492 -36.125,-42.901c-16.073,-5.219 -36.636,13.487 -54.449,13.487c-17.814,0 -38.376,-18.707 -54.45,-13.487c-16.659,5.409 -22.256,32.81 -36.123,42.901c-14.005,10.192 -41.759,7.12 -51.952,21.125c-10.091,13.867 1.338,39.264 -4.071,55.923c-5.219,16.073 -29.567,29.821 -29.567,47.635c0,17.812 24.348,31.561 29.567,47.635c5.409,16.659 -6.021,42.056 4.071,55.922c10.192,14.005 37.947,10.934 51.952,21.125c13.866,10.092 19.464,37.492 36.124,42.901c16.073,5.219 36.635,-13.488 54.449,-13.488c17.813,0 38.376,18.707 54.45,13.487c16.659,-5.409 22.256,-32.811 36.123,-42.901c14.005,-10.191 41.759,-7.12 51.952,-21.125c10.092,-13.867 -1.338,-39.263 4.071,-55.923zm-146.595,82.785c-71.913,0 -130.418,-58.505 -130.418,-130.418c0,-71.914 58.505,-130.418 130.418,-130.418s130.418,58.505 130.418,130.418c0,71.913 -58.505,130.418 -130.418,130.418z" fill="currentColor"/>
   </g>
  </g>
 </g>
</svg>