<?xml version="1.0" encoding="iso-8859-1"?>
<!-- Uploaded to: SVG Repo, www.svgrepo.com, Generator: SVG Repo Mixer Tools -->
<svg fill="#000000" height="800px" width="800px" version="1.1" id="Layer_1" xmlns="http://www.w3.org/2000/svg" xmlns:xlink="http://www.w3.org/1999/xlink" 
	 viewBox="0 0 512 512" xml:space="preserve">
<g>
	<g>
		<g>
			<path d="M510.592,238.507c-2.069-15.979-6.635-30.464-13.355-43.605c-0.064-0.128-0.149-0.235-0.213-0.363
				c-15.211-29.483-39.893-52.992-64.085-76.032c-6.699-6.379-13.461-12.821-20.032-19.392
				c-6.635-6.613-13.077-13.397-19.499-20.139c-24.363-25.579-49.451-51.477-81.344-66.347c-0.427-0.149-0.725-0.512-1.173-0.597
				l-0.533-0.107c-11.584-5.205-24.107-8.896-37.824-10.581C267.52,0.555,262.144,0,256,0C114.837,0,0,114.837,0,256
				s114.837,256,256,256s256-114.837,256-256C512,249.493,511.467,243.733,510.592,238.507z M256,490.667
				c-129.387,0-234.667-105.28-234.667-234.667c0-126.485,100.672-229.611,226.048-234.197c1.941-0.811,4.075-1.216,6.272-0.725
				l1.387,0.299l2.795,0.619l25.131,5.632l2.688,0.597c0.597,0.448,0.896,1.173,1.429,1.664c0.341,0.277,0.811,0.32,1.131,0.619
				c1.323,1.344,2.283,2.987,3.307,4.544c0.32,0.512,0.747,0.896,1.045,1.451c4.501,7.851,6.357,18.624,8.917,34.389
				c4.629,28.523,10.389,64.021,42.987,96.619c32.597,32.597,68.096,38.357,96.619,42.987c9.387,1.536,17.237,2.88,23.872,4.757
				c3.264,0.917,6.165,2.027,8.789,3.307c0.341,0.171,0.64,0.363,0.981,0.533c2.304,1.216,4.352,2.709,6.144,4.395
				c0.277,0.256,0.533,0.533,0.789,0.789c1.749,1.813,3.243,3.989,4.459,6.464c0.128,0.277,0.277,0.512,0.405,0.789
				c2.667,5.952,4.139,13.632,4.139,24.469C490.667,385.387,385.387,490.667,256,490.667z"/>
			<path d="M437.675,231.595c-29.888-4.864-70.827-11.499-108.288-48.96c-37.461-37.461-44.096-78.4-48.96-108.288
				c-2.027-12.523-3.584-22.123-5.952-26.731l-21.333-4.779C136.832,44.373,42.667,139.328,42.667,256
				c0,117.632,95.701,213.333,213.333,213.333S469.333,373.632,469.333,256c0-3.989-0.427-7.915-0.704-11.861
				C466.923,236.437,460.715,235.328,437.675,231.595z M320.768,266.667c8.32,8.32,8.32,21.845,0,30.165
				c-4.032,4.032-9.387,6.251-15.083,6.251c-5.717,0-11.072-2.219-15.104-6.251c-8.32-8.299-8.32-21.845,0-30.165
				C298.624,258.603,312.683,258.603,320.768,266.667z M162.368,244.032c-2.091,2.091-4.821,3.115-7.552,3.115
				c-2.731,0-5.461-1.045-7.552-3.115l-30.165-30.187c-3.051-3.051-3.968-7.637-2.304-11.627c1.664-3.989,5.547-6.592,9.856-6.592
				h38.997c10.901,0,21.163-4.245,28.885-11.968c4.139-4.16,4.139-10.923,0-15.083c-4.16-4.181-10.923-4.16-15.083,0
				c-4.16,4.16-10.923,4.16-15.083,0c-4.16-4.16-4.16-10.923,0-15.083c12.48-12.48,32.789-12.459,45.269,0
				c12.459,12.48,12.459,32.768,0,45.248c-11.755,11.733-27.371,18.219-43.989,18.219H150.4l11.968,11.968
				C166.528,233.131,166.528,239.872,162.368,244.032z M192.533,289.301l-15.083-15.083c-4.16-4.16-4.16-10.923,0-15.083
				c4.16-4.16,10.923-4.16,15.083,0l15.104,15.083c4.032,4.032,11.051,4.032,15.083,0c4.16-4.16,4.16-10.923,0-15.083
				l-15.083-15.083c-4.16-4.16-4.16-10.923,0-15.083l30.165-30.187c4.011-4.011,11.093-4.011,15.083,0l30.165,30.187
				c4.16,4.16,4.16,10.923,0,15.083c-4.16,4.16-10.923,4.16-15.083,0l-22.635-22.635l-15.083,15.104l7.552,7.552
				c12.48,12.48,12.48,32.768,0,45.248c-6.037,6.037-14.08,9.365-22.635,9.365C206.613,298.667,198.571,295.339,192.533,289.301z
				 M320.768,387.349c-4.032,4.032-9.387,6.251-15.083,6.251c-5.717,0-11.072-2.219-15.104-6.251c-8.32-8.299-8.32-21.845,0-30.165
				c8.021-8.064,22.101-8.064,30.165,0C329.088,365.483,329.088,379.029,320.768,387.349z M366.016,337.685H245.333
				c-5.888,0-10.667-4.779-10.667-10.667s4.779-10.667,10.667-10.667h120.683c5.888,0,10.667,4.779,10.667,10.667
				S371.904,337.685,366.016,337.685z"/>
		</g>
	</g>
</g>
</svg>